# xmcd
#
# Track frame offsets:
#	150
#	13813
#	31616
#	52360
#	78288
#	96012
#	110107
#	122790
#	138208
#	155510
#	172034
#	188973
#	206891
#	224177
#	236311
#	252719
#	270742
#	292036
#	310144
#
# Disc length: 4377 seconds
#
# Revision: 1
# Processed by: cddbd v1.5.2PL0 Copyright (c) Steve Scherf et al.
# Submitted via: audiograbber 1.83.01
#
DISCID=27111713
DTITLE=—борник - Songs About Love CD2
DYEAR=1900
DGENRE=
TTITLE0=U2 - Sweetest Thing
TTITLE1=Wet Wet Wet - Love Is All Around
TTITLE2=ABBA - Lay All Your Love On Me
TTITLE3=Spandau Ballet - True
TTITLE4=Rod Stewart - Handbags and Gladrags
TTITLE5=Elvis Costello - She
TTITLE6=Dusty Springfield - You Don't Have To Say You Love Me
TTITLE7=Barry White - You're The First, The Last, My Everything
TTITLE8=Robert Palmer - Addicted To Love
TTITLE9=Paul Weller - You Do Something To Me
TTITLE10=10cc - I'm Not In Love
TTITLE11=The Jackson 5 - I'll Be There
TTITLE12=Womack and Womack - Teardrops
TTITLE13=The Temptations - My Girl
TTITLE14=The Commodores - Three Times A Lady
TTITLE15=Extreme - More Than Words
TTITLE16=Whitesnake - Is This Love
TTITLE17=Cher - If I Could Turn Back Time
TTITLE18=Elton John - Your Song
EXTD=
EXTT0=
EXTT1=
EXTT2=
EXTT3=
EXTT4=
EXTT5=
EXTT6=
EXTT7=
EXTT8=
EXTT9=
EXTT10=
EXTT11=
EXTT12=
EXTT13=
EXTT14=
EXTT15=
EXTT16=
EXTT17=
EXTT18=
PLAYORDER=
